<svg aria-hidden="true" xmlns="http://www.w3.org/2000/svg" xmlns:xlink="http://www.w3.org/1999/xlink"><symbol viewBox="0 0 16 16" id="account" xmlns="http://www.w3.org/2000/svg">
<path d="M8 0C9.06087 0 10.0783 0.421427 10.8284 1.17157C11.5786 1.92172 12 2.93913 12 4C12 5.06087 11.5786 6.07828 10.8284 6.82843C10.0783 7.57857 9.06087 8 8 8C6.93913 8 5.92172 7.57857 5.17157 6.82843C4.42143 6.07828 4 5.06087 4 4C4 2.93913 4.42143 1.92172 5.17157 1.17157C5.92172 0.421427 6.93913 0 8 0ZM8 10C12.42 10 16 11.79 16 14V16H0V14C0 11.79 3.58 10 8 10Z"/>
</symbol><symbol viewBox="0 0 14 17" id="account-2" xmlns="http://www.w3.org/2000/svg">
<path d="M6.89428 8.08322C8.00476 8.08322 8.96635 7.68493 9.75204 6.89912C10.5377 6.11343 10.936 5.15209 10.936 4.04148C10.936 2.93125 10.5377 1.96979 9.75191 1.18384C8.9661 0.398284 8.00463 0 6.89428 0C5.78366 0 4.82233 0.398284 4.03664 1.18397C3.25095 1.96966 2.85254 2.93112 2.85254 4.04148C2.85254 5.15209 3.25095 6.11356 4.03677 6.89924C4.82258 7.6848 5.78405 8.08322 6.89428 8.08322Z"/>
<path d="M13.9661 12.9033C13.9434 12.5764 13.8976 12.2197 13.8301 11.843C13.762 11.4636 13.6743 11.1049 13.5693 10.777C13.4609 10.4381 13.3134 10.1034 13.1311 9.78274C12.9419 9.44988 12.7196 9.16003 12.4702 8.92152C12.2094 8.672 11.8902 8.47139 11.5209 8.32506C11.153 8.17949 10.7452 8.10575 10.3091 8.10575C10.1378 8.10575 9.97209 8.17603 9.65216 8.38433C9.45526 8.51274 9.22494 8.66125 8.96787 8.8255C8.74805 8.96556 8.45026 9.09679 8.08245 9.21559C7.72359 9.33171 7.35924 9.3906 6.99962 9.3906C6.63999 9.3906 6.27576 9.33171 5.91653 9.21559C5.5491 9.09692 5.25131 8.96569 5.03175 8.82563C4.77711 8.66291 4.54666 8.5144 4.34682 8.3842C4.02727 8.17591 3.86148 8.10562 3.69018 8.10562C3.25387 8.10562 2.84624 8.17949 2.47843 8.32518C2.10946 8.47126 1.79004 8.67187 1.529 8.92165C1.27973 9.16029 1.05736 9.45001 0.868391 9.78274C0.686212 10.1034 0.538727 10.438 0.430163 10.7771C0.32531 11.105 0.237614 11.4636 0.169505 11.843C0.102036 12.2192 0.0562028 12.576 0.0335425 12.9037C0.0112662 13.2248 0 13.5581 0 13.8946C0 14.7706 0.278453 15.4797 0.827551 16.0027C1.36986 16.5188 2.08744 16.7806 2.96006 16.7806H11.0399C11.9126 16.7806 12.6299 16.5189 13.1723 16.0027C13.7215 15.4801 14 14.7708 14 13.8945C13.9999 13.5564 13.9885 13.2229 13.9661 12.9033Z"/>
</symbol><symbol viewBox="0 0 10 15" id="arrow" xmlns="http://www.w3.org/2000/svg">
<path fill-rule="evenodd" clip-rule="evenodd" d="M8.2071 7.50012L0.684708 1.38817L1.3153 0.612061L9.79291 7.50012L1.3153 14.3882L0.684708 13.6121L8.2071 7.50012Z"/>
</symbol><symbol viewBox="0 0 14 17" id="book" xmlns="http://www.w3.org/2000/svg">
<path d="M1.00448 5.0538H0.470852C0.210816 5.0538 0 5.26462 0 5.52465C0 5.78469 0.210816 5.99551 0.470852 5.99551H1.00448V5.0538Z"/>
<path d="M1.00448 12.5874H0.470852C0.210816 12.5874 0 12.7982 0 13.0583C0 13.3183 0.210816 13.5291 0.470852 13.5291H1.00448V12.5874Z"/>
<path d="M1.00448 10.0762H0.470852C0.210816 10.0762 0 10.287 0 10.5471C0 10.8071 0.210816 11.0179 0.470852 11.0179H1.00448V10.0762Z"/>
<path d="M1.00448 7.56503H0.470852C0.210816 7.56503 0 7.77585 0 8.03588C0 8.29592 0.210816 8.50674 0.470852 8.50674H1.00448V7.56503Z"/>
<path d="M1.00448 2.5426H0.470852C0.210816 2.5426 0 2.75342 0 3.01345C0 3.27349 0.210816 3.48431 0.470852 3.48431H1.00448V2.5426Z"/>
<path d="M4.01834 0H2.41744C1.63856 0 1.00488 0.633673 1.00488 1.41256V2.5426H2.48022C2.74025 2.5426 2.95107 2.75342 2.95107 3.01345C2.95107 3.27349 2.74025 3.4843 2.48022 3.4843C2.05168 3.4843 1.466 3.4843 1.00488 3.4843V5.05381H2.48022C2.74025 5.05381 2.95107 5.26463 2.95107 5.52466C2.95107 5.7847 2.74025 5.99552 2.48022 5.99552C1.71562 5.99552 2.16255 5.99552 1.00488 5.99552V7.56502H2.48022C2.74025 7.56502 2.95107 7.77584 2.95107 8.03587C2.95107 8.29591 2.74025 8.50673 2.48022 8.50673C2.05168 8.50673 1.466 8.50673 1.00488 8.50673V10.0762H2.48022C2.74025 10.0762 2.95107 10.287 2.95107 10.5471C2.95107 10.8071 2.74025 11.0179 2.48022 11.0179C1.71562 11.0179 2.16255 11.0179 1.00488 11.0179V12.5874H2.48022C2.74025 12.5874 2.95107 12.7983 2.95107 13.0583C2.95107 13.3183 2.74025 13.5291 2.48022 13.5291C2.05168 13.5291 1.466 13.5291 1.00488 13.5291V14.6592C1.00488 15.4381 1.63856 16.0717 2.41744 16.0717H4.01834V0Z"/>
<path d="M7.94141 3.48431H10.0759V4.55158H7.94141V3.48431Z"/>
<path d="M12.5878 0H4.95996V16.0717H12.5878C13.3666 16.0717 14.0003 15.4381 14.0003 14.6592V1.41256C14.0003 0.633673 13.3666 0 12.5878 0ZM11.0183 5.02242C11.0183 5.28246 10.8074 5.49327 10.5474 5.49327H7.47117C7.21114 5.49327 7.00032 5.28246 7.00032 5.02242V3.01345C7.00032 2.75342 7.21114 2.5426 7.47117 2.5426H10.5474C10.8074 2.5426 11.0183 2.75342 11.0183 3.01345V5.02242Z"/>
</symbol><symbol viewBox="0 0 16 16" id="cart" xmlns="http://www.w3.org/2000/svg">
<path d="M12.8 12.8C11.912 12.8 11.2 13.512 11.2 14.4C11.2 14.8243 11.3686 15.2313 11.6686 15.5314C11.9687 15.8314 12.3757 16 12.8 16C13.2243 16 13.6313 15.8314 13.9314 15.5314C14.2314 15.2313 14.4 14.8243 14.4 14.4C14.4 13.9757 14.2314 13.5687 13.9314 13.2686C13.6313 12.9686 13.2243 12.8 12.8 12.8ZM0 0V1.6H1.6L4.48 7.672L3.392 9.632C3.272 9.856 3.2 10.12 3.2 10.4C3.2 10.8243 3.36857 11.2313 3.66863 11.5314C3.96869 11.8314 4.37565 12 4.8 12H14.4V10.4H5.136C5.08296 10.4 5.03209 10.3789 4.99458 10.3414C4.95707 10.3039 4.936 10.253 4.936 10.2C4.936 10.16 4.944 10.128 4.96 10.104L5.68 8.8H11.64C12.24 8.8 12.768 8.464 13.04 7.976L15.904 2.8C15.96 2.672 16 2.536 16 2.4C16 2.18783 15.9157 1.98434 15.7657 1.83431C15.6157 1.68429 15.4122 1.6 15.2 1.6H3.368L2.616 0H0ZM4.8 12.8C3.912 12.8 3.2 13.512 3.2 14.4C3.2 14.8243 3.36857 15.2313 3.66863 15.5314C3.96869 15.8314 4.37565 16 4.8 16C5.22435 16 5.63131 15.8314 5.93137 15.5314C6.23143 15.2313 6.4 14.8243 6.4 14.4C6.4 13.9757 6.23143 13.5687 5.93137 13.2686C5.63131 12.9686 5.22435 12.8 4.8 12.8Z"/>
</symbol><symbol viewBox="0 0 9 9" id="clear" xmlns="http://www.w3.org/2000/svg">
<path fill-rule="evenodd" clip-rule="evenodd" d="M0.292847 7.29297L7.29285 0.292969L8.70706 1.70718L1.70706 8.70718L0.292847 7.29297Z"/>
<path fill-rule="evenodd" clip-rule="evenodd" d="M7.29285 8.70728L0.292846 1.70728L1.70706 0.293062L8.70706 7.29306L7.29285 8.70728Z"/>
</symbol><symbol viewBox="0 0 8 15" id="fb" xmlns="http://www.w3.org/2000/svg">
<path fill-rule="evenodd" clip-rule="evenodd" d="M4.744 14.9999V8.62194H6.922L7.233 6.13294H4.744V4.57794C4.744 3.87794 4.977 3.33394 5.988 3.33394H7.31V1.07794C7 1.07794 6.222 0.99994 5.367 0.99994C4.93393 0.970784 4.49971 1.03595 4.09428 1.19093C3.68885 1.34591 3.32188 1.58703 3.01869 1.89763C2.71551 2.20823 2.48333 2.58092 2.33819 2.98997C2.19305 3.39903 2.13839 3.83471 2.178 4.26694V6.13294H0V8.62194H2.178V14.9999H4.744Z"/>
</symbol><symbol viewBox="0 0 16 16" id="inst" xmlns="http://www.w3.org/2000/svg">
<path fill-rule="evenodd" clip-rule="evenodd" d="M7.99999 2.2439C8.93403 2.2089 9.86935 2.23496 10.8 2.3219C11.2514 2.31616 11.6998 2.3952 12.122 2.5549C12.7044 2.82638 13.1725 3.29447 13.444 3.8769C13.6042 4.29935 13.6835 4.74814 13.678 5.1999C13.678 5.8999 13.756 6.1329 13.756 7.9999C13.791 8.93394 13.7649 9.86926 13.678 10.7999C13.6837 11.2513 13.6047 11.6997 13.445 12.1219C13.1735 12.7043 12.7054 13.1724 12.123 13.4439C11.7008 13.6036 11.2524 13.6826 10.801 13.6769C10.101 13.6769 9.86799 13.7549 8.00099 13.7549C7.06696 13.7899 6.13163 13.7638 5.20099 13.6769C4.74963 13.6826 4.3012 13.6036 3.87899 13.4439C3.29657 13.1724 2.82847 12.7043 2.55699 12.1219C2.39661 11.6998 2.31689 11.2514 2.32199 10.7999C2.32199 10.0999 2.24399 9.8669 2.24399 7.9999C2.209 7.06586 2.23505 6.13054 2.32199 5.1999C2.31625 4.74854 2.39529 4.30011 2.55499 3.8779C2.6909 3.58935 2.87524 3.32621 3.09999 3.0999C3.28254 2.82802 3.55997 2.63403 3.87799 2.5559C4.30013 2.39586 4.74856 2.31648 5.19999 2.3219C6.13063 2.23496 7.06596 2.2089 7.99999 2.2439ZM7.99999 0.999901C7.03997 0.965724 6.07875 0.991775 5.12199 1.0779C4.53748 1.07653 3.95763 1.18192 3.41099 1.3889C2.93911 1.54296 2.51205 1.81005 2.16699 2.1669C1.81014 2.51195 1.54305 2.93902 1.38899 3.4109C1.14483 3.94655 1.03795 4.53459 1.07799 5.1219C0.991866 6.07866 0.965815 7.03988 0.999992 7.9999C0.965815 8.95992 0.991866 9.92114 1.07799 10.8779C1.07662 11.4624 1.18201 12.0423 1.38899 12.5889C1.54305 13.0608 1.81014 13.4878 2.16699 13.8329C2.51205 14.1898 2.93911 14.4568 3.41099 14.6109C3.95763 14.8179 4.53748 14.9233 5.12199 14.9219C6.07875 15.008 7.03997 15.0341 7.99999 14.9999C8.96001 15.0341 9.92123 15.008 10.878 14.9219C11.4625 14.9233 12.0424 14.8179 12.589 14.6109C13.0574 14.4495 13.4829 14.1835 13.8333 13.8332C14.1836 13.4829 14.4496 13.0573 14.611 12.5889C14.818 12.0423 14.9234 11.4624 14.922 10.8779C14.922 10.0999 15 9.8669 15 7.9999C15.0342 7.03988 15.0081 6.07866 14.922 5.1219C14.9234 4.53739 14.818 3.95754 14.611 3.4109C14.4569 2.93902 14.1898 2.51195 13.833 2.1669C13.4879 1.81005 13.0609 1.54296 12.589 1.3889C12.0424 1.18192 11.4625 1.07653 10.878 1.0779C9.92123 0.991775 8.96001 0.965724 7.99999 0.999901ZM7.99999 4.4219C7.52796 4.41406 7.05917 4.50125 6.62153 4.67828C6.18388 4.85531 5.78631 5.11858 5.45249 5.4524C5.11867 5.78622 4.85541 6.18379 4.67837 6.62143C4.50134 7.05908 4.41415 7.52787 4.42199 7.9999C4.42199 8.70756 4.63184 9.39933 5.02499 9.98773C5.41815 10.5761 5.97696 11.0347 6.63075 11.3055C7.28454 11.5764 8.00396 11.6472 8.69803 11.5092C9.39209 11.3711 10.0296 11.0303 10.53 10.5299C11.0304 10.0295 11.3712 9.392 11.5092 8.69793C11.6473 8.00387 11.5764 7.28445 11.3056 6.63066C11.0348 5.97687 10.5762 5.41806 9.98782 5.0249C9.39942 4.63175 8.70765 4.4219 7.99999 4.4219ZM7.99999 10.3329C7.69209 10.3385 7.38622 10.2819 7.10066 10.1666C6.81509 10.0514 6.55569 9.87972 6.33793 9.66196C6.12017 9.44421 5.94853 9.1848 5.83326 8.89924C5.71798 8.61367 5.66143 8.3078 5.66699 7.9999C5.66143 7.692 5.71798 7.38613 5.83326 7.10057C5.94853 6.815 6.12017 6.55559 6.33793 6.33784C6.55569 6.12008 6.81509 5.94844 7.10066 5.83317C7.38622 5.71789 7.69209 5.66134 7.99999 5.6669C8.3079 5.66134 8.61376 5.71789 8.89933 5.83317C9.18489 5.94844 9.4443 6.12008 9.66206 6.33784C9.87981 6.55559 10.0515 6.815 10.1667 7.10057C10.282 7.38613 10.3386 7.692 10.333 7.9999C10.3386 8.3078 10.282 8.61367 10.1667 8.89924C10.0515 9.1848 9.87981 9.44421 9.66206 9.66196C9.4443 9.87972 9.18489 10.0514 8.89933 10.1666C8.61376 10.2819 8.3079 10.3385 7.99999 10.3329ZM11.733 3.4109C11.5637 3.4109 11.3982 3.4611 11.2574 3.55516C11.1167 3.64922 11.0069 3.78291 10.9422 3.93932C10.8774 4.09574 10.8604 4.26785 10.8934 4.4339C10.9265 4.59995 11.008 4.75247 11.1277 4.87218C11.2474 4.9919 11.3999 5.07342 11.566 5.10645C11.732 5.13948 11.9042 5.12253 12.0606 5.05774C12.217 4.99295 12.3507 4.88324 12.4447 4.74247C12.5388 4.6017 12.589 4.4362 12.589 4.2669C12.5872 4.04044 12.4964 3.82378 12.3363 3.66364C12.1761 3.5035 11.9595 3.41273 11.733 3.4109Z"/>
</symbol><symbol viewBox="0 0 16 15" id="like" xmlns="http://www.w3.org/2000/svg">
<path d="M14.7307 1.39307C13.9025 0.494751 12.766 0 11.5304 0C10.6068 0 9.76099 0.291992 9.01636 0.867798C8.64062 1.15845 8.30017 1.51404 8 1.92908C7.69995 1.51416 7.35938 1.15845 6.98352 0.867798C6.23901 0.291992 5.39319 0 4.4696 0C3.23401 0 2.09741 0.494751 1.26917 1.39307C0.450806 2.28088 0 3.49377 0 4.80847C0 6.16162 0.504272 7.40027 1.58691 8.70667C2.55542 9.87524 3.94739 11.0615 5.55933 12.4352C6.10974 12.9043 6.73364 13.436 7.38147 14.0024C7.55261 14.1523 7.77222 14.2349 8 14.2349C8.22766 14.2349 8.44739 14.1523 8.61829 14.0027C9.26611 13.4362 9.89038 12.9042 10.441 12.4348C12.0527 11.0614 13.4447 9.87524 14.4132 8.70654C15.4958 7.40027 16 6.16162 16 4.80835C16 3.49377 15.5492 2.28088 14.7307 1.39307Z"/>
</symbol><symbol viewBox="0 0 14 14" id="orders" xmlns="http://www.w3.org/2000/svg">
<path d="M13.0869 2.71463H12.0679C12.2023 2.5019 12.291 2.2631 12.3163 2.01056C12.3971 1.20345 11.972 0.479938 11.2484 0.159169C10.5832 -0.135678 9.83572 -0.0151468 9.29746 0.473048L8.01066 1.63926C7.76006 1.36516 7.39981 1.1929 6.99999 1.1929C6.59946 1.1929 6.23863 1.36571 5.98797 1.64065L4.69953 0.472911C4.1604 -0.0152835 3.4132 -0.13535 2.74834 0.159333C2.02488 0.48013 1.59974 1.20389 1.68079 2.01097C1.70614 2.26332 1.79479 2.502 1.92918 2.71463H0.913033C0.408761 2.71463 0 3.12342 0 3.62766V4.99723C0 5.24934 0.204394 5.45376 0.45653 5.45376H13.5435C13.7956 5.45376 14 5.24936 14 4.99723V3.62766C14 3.12342 13.5912 2.71463 13.0869 2.71463ZM5.63042 2.56246V2.71463H3.48277C2.91533 2.71463 2.46875 2.18564 2.61048 1.59485C2.6729 1.33467 2.8607 1.11289 3.10359 1.00062C3.43713 0.846453 3.8066 0.895945 4.08673 1.1495L5.63081 2.54901C5.63072 2.55352 5.63042 2.55795 5.63042 2.56246ZM11.4104 1.88934C11.3763 2.36384 10.9477 2.71468 10.472 2.71468H8.36955V2.56252C8.36955 2.55713 8.36922 2.5518 8.36917 2.54641C8.71895 2.22933 9.47776 1.54158 9.88931 1.16853C10.1232 0.956539 10.4505 0.857582 10.753 0.947816C11.1872 1.07732 11.4421 1.44651 11.4104 1.88934Z"/>
<path d="M0.913086 6.36679V13.0624C0.913086 13.5667 1.32185 13.9755 1.82612 13.9755H6.08698V6.36679H0.913086Z"/>
<path d="M7.91309 6.36679V13.9755H12.1739C12.6782 13.9755 13.087 13.5667 13.087 13.0624V6.36679H7.91309Z"/>
</symbol><symbol viewBox="0 0 20 20" id="ready-status" xmlns="http://www.w3.org/2000/svg">
<path d="M10 0C4.48603 0 0 4.48593 0 10C0 15.5141 4.48603 20.0001 10 20.0001C15.514 20.0001 20 15.5141 20 10C20 4.48593 15.5141 0 10 0ZM15.7422 8.31092L9.45969 14.5934C9.19255 14.8605 8.83746 15.0076 8.45972 15.0076C8.08198 15.0076 7.72688 14.8605 7.45975 14.5934L4.25782 11.3915C3.99069 11.1244 3.84356 10.7693 3.84356 10.3915C3.84356 10.0137 3.99069 9.65857 4.25782 9.39144C4.52485 9.12431 4.87995 8.97718 5.25779 8.97718C5.63553 8.97718 5.99073 9.12431 6.25776 9.39155L8.45961 11.5933L13.742 6.31087C14.0092 6.04374 14.3643 5.89672 14.742 5.89672C15.1197 5.89672 15.4748 6.04374 15.742 6.31087C16.2936 6.86246 16.2936 7.75954 15.7422 8.31092Z"/>
</symbol><symbol viewBox="0 0 16 16" id="search" xmlns="http://www.w3.org/2000/svg">
<path d="M5.94286 0C7.519 0 9.03059 0.62612 10.1451 1.74062C11.2596 2.85512 11.8857 4.36671 11.8857 5.94286C11.8857 7.41486 11.3463 8.768 10.4594 9.81029L10.7063 10.0571H11.4286L16 14.6286L14.6286 16L10.0571 11.4286V10.7063L9.81029 10.4594C8.73193 11.3799 7.36065 11.8856 5.94286 11.8857C4.36671 11.8857 2.85512 11.2596 1.74062 10.1451C0.62612 9.03059 0 7.519 0 5.94286C0 4.36671 0.62612 2.85512 1.74062 1.74062C2.85512 0.62612 4.36671 0 5.94286 0ZM5.94286 1.82857C3.65714 1.82857 1.82857 3.65714 1.82857 5.94286C1.82857 8.22857 3.65714 10.0571 5.94286 10.0571C8.22857 10.0571 10.0571 8.22857 10.0571 5.94286C10.0571 3.65714 8.22857 1.82857 5.94286 1.82857Z"/>
</symbol><symbol viewBox="0 0 16 16" id="sign-out" xmlns="http://www.w3.org/2000/svg">
<path d="M11.2075 3.47954V0.781918C11.2075 0.351863 10.8558 0 10.4256 0H0.781918C0.351863 0 0 0.351863 0 0.781918V1.29017V11.4812V11.8332C0 12.1197 0.169416 12.3934 0.417023 12.5237L6.3596 15.5994C6.62024 15.7297 6.93301 15.5474 6.93301 15.2475V12.2502H10.4256C10.8558 12.2502 11.2075 11.8984 11.2075 11.4683V7.19378H9.64366V10.2954C9.64366 10.5169 9.47424 10.6863 9.2527 10.6863H6.94604V6.6725V4.13126V4.05307C6.94604 3.76637 6.77662 3.4927 6.52902 3.36238L3.02342 1.56397H9.2527C9.47424 1.56397 9.64366 1.73338 9.64366 1.95493V3.4927H11.2075V3.47954Z"/>
<path d="M13.2148 2.20227L15.7561 4.7435C16.0819 5.0693 16.0819 5.55148 15.7561 5.87728L13.2148 8.41852C12.889 8.74431 12.3937 8.75748 12.0679 8.43168C11.7552 8.11904 11.7942 7.59763 12.0941 7.28486L13.2408 6.15108H8.79698C8.57557 6.15108 8.3539 6.05986 8.21055 5.89044C7.84565 5.49948 7.93687 4.80879 8.40603 4.54815C8.52331 4.48299 8.66666 4.44389 8.79698 4.44389H13.2409C13.2409 4.44389 12.1072 3.31011 12.0942 3.31011C11.7943 3.01038 11.7552 2.47607 12.068 2.17633C12.3808 1.86357 12.889 1.87647 13.2148 2.20227Z"/>
</symbol><symbol viewBox="0 0 27 29" id="slider-arrow" xmlns="http://www.w3.org/2000/svg">
<path fill-rule="evenodd" clip-rule="evenodd" d="M13.5 8C14.8807 8 16 6.88071 16 5.5C16 4.11929 14.8807 3 13.5 3C12.1193 3 11 4.11929 11 5.5C11 6.88071 12.1193 8 13.5 8ZM13.5 11C16.5376 11 19 8.53757 19 5.5C19 2.46243 16.5376 0 13.5 0C10.4624 0 8 2.46243 8 5.5C8 8.53757 10.4624 11 13.5 11Z"/>
<path fill-rule="evenodd" clip-rule="evenodd" d="M0.76738 18.575L3.23261 15.425L13.5 23.4603L23.7674 15.425L26.2326 18.575L13.5 28.5397L0.76738 18.575Z"/>
</symbol><symbol viewBox="0 0 14 12" id="twitee" xmlns="http://www.w3.org/2000/svg">
<path fill-rule="evenodd" clip-rule="evenodd" d="M4.433 11.3561C5.50822 11.3658 6.5746 11.1612 7.56987 10.7543C8.56513 10.3473 9.46933 9.74608 10.2297 8.98575C10.99 8.22543 11.5912 7.32123 11.9982 6.32596C12.4051 5.33069 12.6097 4.26431 12.6 3.1891V2.8001C13.1434 2.3863 13.6162 1.88716 14 1.3221C13.4786 1.54899 12.9295 1.70601 12.367 1.7891C12.9454 1.42571 13.3838 0.877305 13.611 0.233096C13.049 0.546021 12.4472 0.781489 11.822 0.933096C11.5588 0.636773 11.2352 0.400206 10.873 0.239282C10.5108 0.0783579 10.1183 -0.0031965 9.722 9.58566e-05C8.96225 0.0114528 8.2368 0.318316 7.69951 0.855603C7.16222 1.39289 6.85536 2.11834 6.844 2.8781C6.82638 3.0886 6.85295 3.30046 6.922 3.5001C5.77752 3.44488 4.65805 3.1457 3.63861 2.62262C2.61917 2.09953 1.72329 1.36461 1.011 0.467096C0.755013 0.917552 0.620934 1.42698 0.622002 1.9451C0.632276 2.41513 0.749669 2.87662 0.965244 3.29443C1.18082 3.71223 1.48889 4.07534 1.866 4.3561C1.39853 4.34662 0.942099 4.21232 0.543999 3.9671C0.543268 4.63318 0.776435 5.27837 1.20282 5.7901C1.6292 6.30183 2.22172 6.64761 2.877 6.7671C2.62367 6.83545 2.36085 6.8618 2.099 6.8451C1.91421 6.85743 1.72888 6.83086 1.555 6.7671C1.74529 7.3434 2.10887 7.84689 2.59606 8.2088C3.08325 8.5707 3.6703 8.77336 4.277 8.7891C3.25478 9.58743 1.997 10.0249 0.700001 10.0331C0.463968 10.0457 0.22747 10.0193 0 9.9551C1.28698 10.8897 2.84269 11.381 4.433 11.3551"/>
</symbol><symbol viewBox="0 0 14 12" id="twiter" xmlns="http://www.w3.org/2000/svg">
<path fill-rule="evenodd" clip-rule="evenodd" d="M4.433 11.3561C5.50822 11.3658 6.5746 11.1612 7.56987 10.7543C8.56513 10.3473 9.46933 9.74608 10.2297 8.98575C10.99 8.22543 11.5912 7.32123 11.9982 6.32596C12.4051 5.33069 12.6097 4.26431 12.6 3.1891V2.8001C13.1434 2.3863 13.6162 1.88716 14 1.3221C13.4786 1.54899 12.9295 1.70601 12.367 1.7891C12.9454 1.42571 13.3838 0.877305 13.611 0.233096C13.049 0.546021 12.4472 0.781489 11.822 0.933096C11.5588 0.636773 11.2352 0.400206 10.873 0.239282C10.5108 0.0783579 10.1183 -0.0031965 9.722 9.58566e-05C8.96225 0.0114528 8.2368 0.318316 7.69951 0.855603C7.16222 1.39289 6.85536 2.11834 6.844 2.8781C6.82638 3.0886 6.85295 3.30046 6.922 3.5001C5.77752 3.44488 4.65805 3.1457 3.63861 2.62262C2.61917 2.09953 1.72329 1.36461 1.011 0.467096C0.755013 0.917552 0.620934 1.42698 0.622002 1.9451C0.632276 2.41513 0.749669 2.87662 0.965244 3.29443C1.18082 3.71223 1.48889 4.07534 1.866 4.3561C1.39853 4.34662 0.942099 4.21232 0.543999 3.9671V3.9671C0.543268 4.63318 0.776435 5.27837 1.20282 5.7901C1.6292 6.30183 2.22172 6.64761 2.877 6.7671C2.62367 6.83545 2.36085 6.8618 2.099 6.8451C1.91421 6.85743 1.72888 6.83086 1.555 6.7671C1.74529 7.3434 2.10887 7.84689 2.59606 8.2088C3.08325 8.5707 3.6703 8.77336 4.277 8.7891C3.25478 9.58743 1.997 10.0249 0.700001 10.0331C0.463968 10.0457 0.22747 10.0193 0 9.9551C1.28698 10.8897 2.84269 11.381 4.433 11.3551"/>
</symbol></svg>